<svg xmlns="http://www.w3.org/2000/svg" viewBox="0 0 64 64">
  <defs>
    <linearGradient id="javaG" x1="0" x2="1" y1="0" y2="1">
      <stop offset="0" stop-color="#FF6B35"/>
      <stop offset="1" stop-color="#E94B1B"/>
    </linearGradient>
  </defs>
  <rect width="64" height="64" rx="12" fill="url(#javaG)" opacity="0.15"/>
  <!-- Java cup icon -->
  <path d="M22 24c0-2 2-3 4-3h12c2 0 4 1 4 3v18c0 2-2 4-4 4H26c-2 0-4-2-4-4V24z"
        fill="none" stroke="url(#javaG)" stroke-width="2.5"/>
  <path d="M42 28c2 0 4 1 4 3v6c0 2-2 3-4 3" fill="none" stroke="url(#javaG)" stroke-width="2.5"/>
  <!-- Steam -->
  <path d="M28 16c0 0 -2 -2 0 -5 1 -1.5 0 -3 0 -3" fill="none" stroke="url(#javaG)" stroke-width="2" stroke-linecap="round"/>
  <path d="M34 18c0 0 -2 -2 0 -5 1 -1.5 0 -3 0 -3" fill="none" stroke="url(#javaG)" stroke-width="2" stroke-linecap="round"/>
</svg>
